<?xml version="1.0" encoding="iso-8859-1"?>
<!-- Generator: Adobe Illustrator 19.0.0, SVG Export Plug-In . SVG Version: 6.00 Build 0)  -->
<svg version="1.1" id="Layer_1" xmlns="http://www.w3.org/2000/svg" xmlns:xlink="http://www.w3.org/1999/xlink" x="0px" y="0px"
	 viewBox="0 0 470 470" style="enable-background:new 0 0 470 470;" xml:space="preserve">
<g>
	<path d="M162.5,139.546V102.5c0-39.977,32.523-72.5,72.5-72.5s72.5,32.523,72.5,72.5v37.046c0.164,0.069,0.329,0.132,0.493,0.201
		c10.347,4.376,20.196,9.637,29.507,15.724V102.5C337.5,45.981,291.519,0,235,0S132.5,45.981,132.5,102.5v52.971
		c9.311-6.086,19.161-11.347,29.507-15.724C162.171,139.678,162.336,139.615,162.5,139.546z"/>
	<path d="M235,155c-86.985,0-157.5,70.515-157.5,157.5S148.015,470,235,470s157.5-70.515,157.5-157.5S321.985,155,235,155z
		 M222.552,367.034l-58.808-58.808l21.213-21.213l37.595,37.594l56.034-56.034l21.213,21.213L222.552,367.034z"/>
</g>
<g>
</g>
<g>
</g>
<g>
</g>
<g>
</g>
<g>
</g>
<g>
</g>
<g>
</g>
<g>
</g>
<g>
</g>
<g>
</g>
<g>
</g>
<g>
</g>
<g>
</g>
<g>
</g>
<g>
</g>
</svg>
