<?xml version="1.0" encoding="utf-8"?>
<!-- Generator: Adobe Illustrator 25.2.0, SVG Export Plug-In . SVG Version: 6.00 Build 0)  -->
<svg version="1.1" id="Layer_1" xmlns="http://www.w3.org/2000/svg" xmlns:xlink="http://www.w3.org/1999/xlink" x="0px" y="0px"
	 viewBox="0 0 108 30" style="enable-background:new 0 0 108 30;" xml:space="preserve">
<style type="text/css">
	.st0{fill:#FCBF0B;}
</style>
<g>
	<path class="st0" d="M0.37,14.66c0-3.67,0.93-6.44,2.78-8.31C5,4.48,7.7,3.54,11.24,3.54c1.7,0,3.22,0.22,4.56,0.67
		c1.34,0.45,2.63,1.14,3.88,2.07v8.19c-1.06,0-2.07-0.02-3.04-0.07c-0.97-0.05-1.93-0.11-2.89-0.21c-0.96-0.09-1.94-0.22-2.94-0.38
		c-1-0.16-2.08-0.36-3.23-0.58v0.82c2.15,0.49,4.21,0.82,6.17,0.99c1.96,0.16,3.94,0.25,5.93,0.25v7.2
		c-0.73,0.64-1.45,1.17-2.16,1.59s-1.45,0.76-2.22,1.01c-0.77,0.26-1.57,0.43-2.41,0.53c-0.84,0.1-1.75,0.15-2.74,0.15
		c-1.48,0-2.82-0.23-4.03-0.7c-1.2-0.46-2.23-1.16-3.08-2.09c-0.85-0.93-1.51-2.09-1.97-3.48C0.6,18.12,0.37,16.51,0.37,14.66z"/>
	<path class="st0" d="M42.24,3.96v21.41H32.3V20.5h-0.96v4.87H21.4V3.96h9.94v4.87h0.96V3.96H42.24z"/>
	<path class="st0" d="M44.21,14.66V3.96h9.91v13.36h0.96V3.96h9.8v10.71c0,1.83-0.26,3.43-0.78,4.82c-0.52,1.39-1.24,2.55-2.16,3.48
		c-0.92,0.93-2.01,1.63-3.27,2.11s-2.64,0.71-4.13,0.71c-1.48,0-2.85-0.23-4.12-0.7c-1.27-0.46-2.36-1.16-3.27-2.09
		c-0.91-0.93-1.63-2.09-2.15-3.48C44.47,18.12,44.21,16.51,44.21,14.66z"/>
	<path class="st0" d="M86.22,12.2c0,1.31-0.21,2.41-0.64,3.29c-0.43,0.88-0.98,1.63-1.66,2.27l2.93,7.59h-9.42l-1.78-5.18h-0.03v5.2
		h-8.76V3.96h8.41c1.95,0,3.62,0.17,5.01,0.52c1.39,0.35,2.52,0.86,3.4,1.55c0.88,0.68,1.52,1.54,1.93,2.57
		C86.01,9.63,86.22,10.83,86.22,12.2z M73.84,11.05l-0.49,0.68c0.38,0.26,0.87,0.48,1.46,0.66c0.59,0.18,1.22,0.34,1.88,0.47
		c0.66,0.13,1.31,0.22,1.97,0.29c0.66,0.06,1.24,0.1,1.75,0.1v-0.77c-0.51,0-1.08-0.04-1.7-0.11c-0.62-0.07-1.24-0.17-1.85-0.3
		c-0.61-0.13-1.19-0.28-1.72-0.45C74.6,11.44,74.17,11.25,73.84,11.05z"/>
	<path class="st0" d="M94.81,3.96l1.62,3.97l-1.45,3.75l0.74,0.19l3.04-7.91h8.93l-6.27,14.21v7.17h-9.34v-7.12L85.23,3.96H94.81z"
		/>
</g>
</svg>
